<svg width="16" height="14" viewBox="0 0 16 14" fill="none" xmlns="http://www.w3.org/2000/svg">
<path d="M0 1.125C0 0.492188 0.492188 0 1.125 0H14.625C15.2578 0 15.75 0.492188 15.75 1.125C15.75 1.75781 15.2578 2.25 14.625 2.25H1.125C0.492188 2.25 0 1.75781 0 1.125ZM0 6.75C0 6.11719 0.492188 5.625 1.125 5.625H14.625C15.2578 5.625 15.75 6.11719 15.75 6.75C15.75 7.38281 15.2578 7.875 14.625 7.875H1.125C0.492188 7.875 0 7.38281 0 6.75ZM15.75 12.375C15.75 13.0078 15.2578 13.5 14.625 13.5H1.125C0.492188 13.5 0 13.0078 0 12.375C0 11.7422 0.492188 11.25 1.125 11.25H14.625C15.2578 11.25 15.75 11.7422 15.75 12.375Z" fill="#FDC71C"/>
</svg>
