<svg width="16" height="16" viewBox="0 0 16 16" fill="none" xmlns="http://www.w3.org/2000/svg">
<path d="M0 1.125C0 0.492188 0.492188 0 1.125 0H2.8125C3.44531 0 3.9375 0.492188 3.9375 1.125V2.8125C3.9375 3.44531 3.44531 3.9375 2.8125 3.9375H1.125C0.492188 3.9375 0 3.44531 0 2.8125V1.125ZM0 7.03125C0 6.39844 0.492188 5.90625 1.125 5.90625H2.8125C3.44531 5.90625 3.9375 6.39844 3.9375 7.03125V8.71875C3.9375 9.35156 3.44531 9.84375 2.8125 9.84375H1.125C0.492188 9.84375 0 9.35156 0 8.71875V7.03125ZM3.9375 12.9375V14.625C3.9375 15.2578 3.44531 15.75 2.8125 15.75H1.125C0.492188 15.75 0 15.2578 0 14.625V12.9375C0 12.3047 0.492188 11.8125 1.125 11.8125H2.8125C3.44531 11.8125 3.9375 12.3047 3.9375 12.9375ZM5.90625 1.125C5.90625 0.492188 6.39844 0 7.03125 0H8.71875C9.35156 0 9.84375 0.492188 9.84375 1.125V2.8125C9.84375 3.44531 9.35156 3.9375 8.71875 3.9375H7.03125C6.39844 3.9375 5.90625 3.44531 5.90625 2.8125V1.125ZM9.84375 7.03125V8.71875C9.84375 9.35156 9.35156 9.84375 8.71875 9.84375H7.03125C6.39844 9.84375 5.90625 9.35156 5.90625 8.71875V7.03125C5.90625 6.39844 6.39844 5.90625 7.03125 5.90625H8.71875C9.35156 5.90625 9.84375 6.39844 9.84375 7.03125ZM5.90625 12.9375C5.90625 12.3047 6.39844 11.8125 7.03125 11.8125H8.71875C9.35156 11.8125 9.84375 12.3047 9.84375 12.9375V14.625C9.84375 15.2578 9.35156 15.75 8.71875 15.75H7.03125C6.39844 15.75 5.90625 15.2578 5.90625 14.625V12.9375ZM15.75 1.125V2.8125C15.75 3.44531 15.2578 3.9375 14.625 3.9375H12.9375C12.3047 3.9375 11.8125 3.44531 11.8125 2.8125V1.125C11.8125 0.492188 12.3047 0 12.9375 0H14.625C15.2578 0 15.75 0.492188 15.75 1.125ZM11.8125 7.03125C11.8125 6.39844 12.3047 5.90625 12.9375 5.90625H14.625C15.2578 5.90625 15.75 6.39844 15.75 7.03125V8.71875C15.75 9.35156 15.2578 9.84375 14.625 9.84375H12.9375C12.3047 9.84375 11.8125 9.35156 11.8125 8.71875V7.03125ZM15.75 12.9375V14.625C15.75 15.2578 15.2578 15.75 14.625 15.75H12.9375C12.3047 15.75 11.8125 15.2578 11.8125 14.625V12.9375C11.8125 12.3047 12.3047 11.8125 12.9375 11.8125H14.625C15.2578 11.8125 15.75 12.3047 15.75 12.9375Z" fill="white"/>
</svg>
