<svg width="15" height="21" viewBox="0 0 15 21" fill="none" xmlns="http://www.w3.org/2000/svg">
<path d="M12.7266 1.44141L13.8164 3.69141C14.4844 5.02734 13.9922 6.67969 12.6562 7.38281L11.918 7.80469L13.2891 11.4961C13.4648 11.9883 13.5352 12.4805 13.5 12.9727L12.9727 19.2305C12.9023 19.8281 12.375 20.2852 11.7422 20.25C11.1445 20.2148 10.6875 19.6523 10.7227 19.0195L11.1797 13.6406C11.1094 13.8164 11.0039 13.9922 10.8984 14.168L7.17188 19.7578C6.82031 20.2852 6.11719 20.4258 5.58984 20.0742C5.09766 19.7227 4.95703 19.0195 5.27344 18.4922L9 12.9023C9.24609 12.5508 9.28125 12.0938 9.07031 11.7422L8.05078 9.98438C7.45312 8.89453 7.83984 7.52344 8.92969 6.89062L11.5664 5.41406C11.8477 5.27344 11.9531 4.95703 11.8125 4.67578L10.3008 1.6875H3.16406L2.8125 2.8125C2.70703 3.12891 2.35547 3.375 2.00391 3.375H0.878906C0.597656 3.375 0.351562 3.23438 0.210938 3.02344C0.0351562 2.8125 0 2.53125 0.0703125 2.25L0.632812 0.5625C0.773438 0.246094 1.08984 0 1.44141 0H11.25C11.2852 0 11.2852 0 11.3203 0H12.1289C12.5859 0 12.9727 0.386719 12.9727 0.84375C12.9727 1.08984 12.8672 1.30078 12.7266 1.44141ZM9.87891 4.5C9.87891 5.58984 9 6.46875 7.91016 6.46875C6.82031 6.46875 5.94141 5.58984 5.94141 4.5C5.94141 3.41016 6.82031 2.53125 7.91016 2.53125C9 2.53125 9.87891 3.41016 9.87891 4.5Z" fill="white"/>
</svg>
